{"title":"Impastor.S01E09.1080p.WEB-DL.AAC2.0.H.265.-DÓTA.mp4","uid":13065774,"size":454142173,"categoryP":"video","categoryS":"tv_shows","magnet":"?xt=urn:btih:7eb0923228736b334eb2d638d39618d9ec22f8a9&amp;dn=Impastor.S01E09.1080p.WEB-DL.AAC2.0.H.265.-D%26Oacute%3BTA.mp4&amp;tr=udp%3A%2F%2Ftracker.leechers-paradise.org%3A6969&amp;tr=udp%3A%2F%2Fzer0day.ch%3A1337&amp;tr=udp%3A%2F%2Fopen.demonii.com%3A1337&amp;tr=udp%3A%2F%2Ftracker.coppersurfer.tk%3A6969&amp;tr=udp%3A%2F%2Fexodus.desync.com%3A6969","seeders":0,"leechers":0,"uploader":"Dota2010","files":1,"time":1450743767,"description":"Format                                   : MPEG-4\r\nFormat profile                           : Base Media / Version 2\r\nCodec ID                                 : mp42\r\nFile size                                : 433 MiB\r\nDuration                                 : 20mn 55s\r\nOverall bit rate mode                    : Variable\r\nOverall bit rate                         : 2 895 Kbps\r\nEncoded date                             : UTC 2036-02-06 06:28:16\r\nTagged date                              : UTC 2036-02-06 06:28:16\r\nWriting application                      : HandBrake 0.10.2 2015060900\r\n\r\nVideo\r\nID                                       : 1\r\nFormat                                   : HEVC\r\nFormat/Info                              : High Efficiency Video Coding\r\nCodec ID                                 : hev1\r\nCodec ID/Info                            : High Efficiency Video Coding\r\nDuration                                 : 20mn 55s\r\nBit rate                                 : 2 729 Kbps\r\nWidth                                    : 1 916 pixels\r\nHeight                                   : 1 076 pixels\r\nDisplay aspect ratio                     : 16:9\r\nFrame rate mode                          : Variable\r\nFrame rate                               : 23.976 fps\r\nMinimum frame rate                       : 23.810 fps\r\nMaximum frame rate                       : 24.390 fps\r\nBits/(Pixel*Frame)                       : 0.055\r\nStream size                              : 408 MiB (94%)\r\nEncoded date                             : UTC 2036-02-06 06:28:16\r\nTagged date                              : UTC 2036-02-06 06:28:16\r\n\r\nAudio\r\nID                                       : 2\r\nFormat                                   : AAC\r\nFormat/Info                              : Advanced Audio Codec\r\nFormat profile                           : LC\r\nCodec ID                                 : 40\r\nDuration                                 : 20mn 55s\r\nBit rate mode                            : Variable\r\nBit rate                                 : 159 Kbps\r\nChannel count                            : 2 channels\r\nChannel positions                        : Front: L R\r\nSampling rate                            : 48.0 KHz\r\nCompression mode                         : Lossy\r\nStream size                              : 23.8 MiB (6%)\r\nTitle                                    : Stereo\r\nLanguage                                 : English\r\nEncoded date                             : UTC 2036-02-06 06:28:16\r\nTagged date                              : UTC 2036-02-06 06:28:16","torrent":{"xt":"urn:btih:7eb0923228736b334eb2d638d39618d9ec22f8a9","amp;dn":"Impastor.S01E09.1080p.WEB-DL.AAC2.0.H.265.-D%26Oacute%3BTA.mp4","amp;tr":["udp%3A%2F%2Ftracker.leechers-paradise.org%3A6969","udp%3A%2F%2Fzer0day.ch%3A1337","udp%3A%2F%2Fopen.demonii.com%3A1337","udp%3A%2F%2Ftracker.coppersurfer.tk%3A6969","udp%3A%2F%2Fexodus.desync.com%3A6969"],"infoHash":"7eb0923228736b334eb2d638d39618d9ec22f8a9","infoHashBuffer":{"type":"Buffer","data":[126,176,146,50,40,115,107,51,78,178,214,56,211,150,24,217,236,34,248,169]},"announce":[],"urlList":[]}}